<svg id="Groupe_1162" data-name="Groupe 1162" xmlns="http://www.w3.org/2000/svg" width="195" height="78.477" viewBox="0 0 195 78.477">
    <defs>
        <clipPath id="clip-path">
            <path id="Rectangle_432" data-name="Rectangle 432" class="cls-1" d="M0 0h195v78.477H0z"/>
        </clipPath>
        <clipPath id="clip-path-2">
            <path id="Tracé_2048" data-name="Tracé 2048" class="cls-1" d="M40.73 56.311a2.542 2.542 0 0 0-.7 1.142c1.268.641 1.284 3.552.761 4.713-.755 1.676-1.8 1.233-1.932-.436a13.258 13.258 0 0 1 .186-2.923 4.3 4.3 0 0 1 1.687-2.5m-1.2-34.057a7.5 7.5 0 0 0-1.786 5.829c.5 3.425 3.513 5.558 5.005 7.031a2.115 2.115 0 0 1 .147 2.974c-8.2-1.5-11.415 2.043-11.415 2.043a8.448 8.448 0 0 0-4.215-2.013c-6-1.112-7.318 4-7.318 4l3.658-.15a3.878 3.878 0 0 0-2.166 2.854c-.058.21 1.2.421 3.015-.27a2.785 2.785 0 0 0 1.727-2.648 2.4 2.4 0 0 1-1.405 3.125c-3.845 1.4-2.478 9.78-.446 11.866a16.586 16.586 0 0 1 1.726-3.48c.069-.092.135-.187.2-.284 4.853-6.86 14.005-7.027 14.005-7.027-8.063-.5-11.2 2.462-11.2 2.462 4.378-9.041 9.715-7.99 14.492-6.938 2.479.546 4.807 1.091 6.772.226-2.838 12.696-9.321 12.05-15.317 11.41-3.047-.326-5.968-.653-8.223.77a5.744 5.744 0 0 0-1.955 1.981c2.339-2.857 9.912-2.558 11.32 2.837.329 1.26.737 3.577-.016 4.466-.8.942-2.4.841-3.281 1.826a15.525 15.525 0 0 1 10.45 1.623 3.522 3.522 0 0 0-2.078-1.712 19.082 19.082 0 0 1 4.332.961 10.574 10.574 0 0 0-4.186-1.953c5.181-.24 6.557 1.232 6.557 1.232-.146-.631-1.756-1.473-1.756-1.473a10.492 10.492 0 0 1 4.244.631 8.287 8.287 0 0 0-4.39-1.622 4.342 4.342 0 0 1 2.341-.316A29.3 29.3 0 0 0 43.805 62a3.487 3.487 0 0 1-1-3.136 4.637 4.637 0 0 1 2.371-2.7 48.561 48.561 0 0 0 4.508-2.554c4.553-3.09 8.1-11.233 5.311-16.616-1.438-2.78-4.477-4.07-8.033-5.678a4.732 4.732 0 0 1-2.839-3.065 3.841 3.841 0 0 0 3.077 2.37 4.163 4.163 0 0 1 4.156.24 2.346 2.346 0 0 0 3.425-.721c-1.4-2.614-5.473-2.915-5.473-2.915 6.586.181 6.556 4.537 6.556 4.537 2.427-4.314.175-6.58.175-6.58-3.044-2.734-6.5-.451-6.5-.451-.719-2.644-3.793-3.786-3.793-3.786a6.386 6.386 0 0 0-2.1-.366 6.009 6.009 0 0 0-4.123 1.673" transform="translate(-19.949 -20.581)"/>
        </clipPath>
        <style>
            .cls-1{fill:none}.cls-2{clip-path:url(#clip-path)}.cls-3{fill:#fff}
        </style>
    </defs>
    <g id="Groupe_1163" data-name="Groupe 1163">
        <g id="Groupe_1162-2" data-name="Groupe 1162" class="cls-2">
            <path id="Tracé_2036" data-name="Tracé 2036" class="cls-3" d="M225.146 101.623v17.188h-1.776v-1.841a4.5 4.5 0 0 1-1.635 1.685 4.36 4.36 0 0 1-2.243.588 4.844 4.844 0 0 1-3.709-1.5 6.377 6.377 0 0 1-.029-7.956 4.765 4.765 0 0 1 3.668-1.486 4.516 4.516 0 0 1 2.313.571 4.21 4.21 0 0 1 1.589 1.7v-8.949zm-1.776 12.165a3.788 3.788 0 0 0-.993-2.733 3.457 3.457 0 0 0-2.617-1.037 3.361 3.361 0 0 0-2.535.942 3.6 3.6 0 0 0-.911 2.606 4.317 4.317 0 0 0 .923 2.933 3.2 3.2 0 0 0 2.547 1.059 3.467 3.467 0 0 0 2.634-1 3.854 3.854 0 0 0 .952-2.772" transform="translate(-136.173 -64.552)"/>
            <path id="Tracé_2037" data-name="Tracé 2037" class="cls-3" d="m252.867 109.256 2.219-6.021 1.986.654-2.862 5.888z" transform="translate(-160.624 -65.576)"/>
            <path id="Tracé_2038" data-name="Tracé 2038" class="cls-3" d="m275.29 102.474 7.78 16.878h-2.208l-2.22-4.979h-6.682l-2.219 4.979h-2.208zm0 4.269-2.722 5.977h5.444z" transform="translate(-169.94 -65.093)"/>
            <path id="Rectangle_431" data-name="Rectangle 431" class="cls-3" transform="translate(114.917 38.024)" d="M0 0h2.033v16.234H0z"/>
            <path id="Tracé_2039" data-name="Tracé 2039" class="cls-3" d="M331.932 120.472v-16.235h2.033v14.393h6.46v1.841z" transform="translate(-210.847 -66.213)"/>
            <path id="Tracé_2040" data-name="Tracé 2040" class="cls-3" d="M361.842 120.472v-16.235h2.033v14.393h6.46v1.841z" transform="translate(-229.846 -66.213)"/>
            <path id="Tracé_2041" data-name="Tracé 2041" class="cls-3" d="M391.752 120.472v-16.235h9.019V106h-6.986v4.658h6.986v1.8h-6.986v6.221h6.986v1.8z" transform="translate(-248.845 -66.213)"/>
            <path id="Tracé_2042" data-name="Tracé 2042" class="cls-3" d="M425.729 104.237h2.056v10.1a5.08 5.08 0 0 0 1.1 3.615 5.779 5.779 0 0 0 6.927 0 5.08 5.08 0 0 0 1.1-3.615v-10.1h2.068v10.1a6.653 6.653 0 0 1-1.654 4.929 8.389 8.389 0 0 1-9.953 0 6.654 6.654 0 0 1-1.653-4.929z" transform="translate(-270.428 -66.213)"/>
            <path id="Tracé_2043" data-name="Tracé 2043" class="cls-3" d="M473.155 120.472v-16.234h4.018a12.434 12.434 0 0 1 2.517.183 3.794 3.794 0 0 1 1.408.626 3.725 3.725 0 0 1 1.18 1.514 5.124 5.124 0 0 1 .421 2.1 3.832 3.832 0 0 1-1.174 3.032 5.047 5.047 0 0 1-3.44 1.037h-.362l6.53 7.74h-2.582l-6.238-7.74h-.292v7.74zm1.986-14.6v5.428h1.554a5.95 5.95 0 0 0 3.189-.582 2.344 2.344 0 0 0 .806-2.035 2.581 2.581 0 0 0-.829-2.19 5.612 5.612 0 0 0-3.166-.627z" transform="translate(-300.553 -66.213)"/>
            <path id="Tracé_2044" data-name="Tracé 2044" class="cls-3" d="M512.526 110.781a5.776 5.776 0 0 1 2.517 1.8 4.269 4.269 0 0 1 .847 2.65 4.652 4.652 0 0 1-1.5 3.61 6.4 6.4 0 0 1-7.365.388 4.822 4.822 0 0 1-1.846-2.788l1.846-.865a4.306 4.306 0 0 0 1.233 2.235 3.134 3.134 0 0 0 2.155.759 3.6 3.6 0 0 0 2.477-.837 2.774 2.774 0 0 0 .946-2.179 2.889 2.889 0 0 0-.66-1.891 5 5 0 0 0-1.992-1.358l-2.079-.843a5.908 5.908 0 0 1-2.541-1.741 4.006 4.006 0 0 1-.835-2.55 3.568 3.568 0 0 1 1.355-2.861 5.213 5.213 0 0 1 3.458-1.131 5.448 5.448 0 0 1 2.669.621 4.3 4.3 0 0 1 1.758 1.83l-1.682 1.02a4.258 4.258 0 0 0-1.285-1.4 2.914 2.914 0 0 0-1.612-.46 2.676 2.676 0 0 0-1.875.665 2.31 2.31 0 0 0-.169 3.194 4.7 4.7 0 0 0 1.741 1.12z" transform="translate(-320.895 -65.537)"/>
            <path id="Tracé_2045" data-name="Tracé 2045" d="M1.886 64.79s52.976-15.016 52.976 0S43 91.979 28.374 91.979 1.886 79.806 1.886 64.79" transform="translate(-1.198 -36.916)" style="fill:#c39675"/>
            <path id="Tracé_2046" data-name="Tracé 2046" d="M54.861 29.076s-52.976 15.016-52.976 0 11.859-27.19 26.488-27.19 26.488 12.173 26.488 27.19" transform="translate(-1.197 -1.198)" style="fill:#0090df"/>
            <path id="Tracé_2047" data-name="Tracé 2047" class="cls-3" d="M27.176 55.755C12.191 55.755 0 43.249 0 27.878S12.191 0 27.176 0s27.175 12.506 27.175 27.878S42.16 55.755 27.176 55.755m0-54.379c-14.226 0-25.8 11.888-25.8 26.5s11.574 26.5 25.8 26.5 25.8-11.888 25.8-26.5-11.574-26.5-25.8-26.5"/>
        </g>
    </g>
    <g id="Groupe_1165" data-name="Groupe 1165" transform="translate(7.277 7.508)">
        <g id="Groupe_1164" data-name="Groupe 1164" style="clip-path:url(#clip-path-2)">
            <path id="Rectangle_433" data-name="Rectangle 433" class="cls-3" transform="translate(0 -.941)" d="M0 0h38.343v47.123H0z"/>
        </g>
    </g>
    <g id="Groupe_1167" data-name="Groupe 1167">
        <g id="Groupe_1166" data-name="Groupe 1166" class="cls-2">
            <path id="Tracé_2049" data-name="Tracé 2049" class="cls-3" d="M169.086 23.966a4.863 4.863 0 0 1-2.246-2.445 7.636 7.636 0 0 1-.561-3.549 11.555 11.555 0 0 1 1.032-3.966 13.15 13.15 0 0 1 2.481-3.695 12.582 12.582 0 0 1 3.785-2.711 11.5 11.5 0 0 1 5-1.051 13.161 13.161 0 0 1 3.676.2 10.1 10.1 0 0 1 2.7.96 6.152 6.152 0 0 1 1.811 1.449 6.692 6.692 0 0 1 1.051 1.72 6.4 6.4 0 0 1 .453 1.7 5.089 5.089 0 0 1-.018 1.431 8.723 8.723 0 0 1-1.05 2.753 9.51 9.51 0 0 1-1.521 1.956 4.445 4.445 0 0 1-1.5 1.014q-.706.254-.96-.109a.451.451 0 0 1 0-.543q.289-.507.652-1.286a9.176 9.176 0 0 0 .58-1.648 7.294 7.294 0 0 0 .217-1.775 3.533 3.533 0 0 0-.4-1.666A3.2 3.2 0 0 0 183 11.437a5.564 5.564 0 0 0-2.39-.616 8.341 8.341 0 0 0-3.8.815 9.539 9.539 0 0 0-2.952 2.137 7.112 7.112 0 0 0-1.63 2.861 4.218 4.218 0 0 0 .2 3.006 5.832 5.832 0 0 0 2.535 2.517 13.755 13.755 0 0 0 5.361 1.449 3.6 3.6 0 0 1 1.449.308 1.861 1.861 0 0 1 .779.652 1.277 1.277 0 0 1 .2.8 1.465 1.465 0 0 1-.271.742 1.566 1.566 0 0 1-.634.507 1.323 1.323 0 0 1-.869.072 13.362 13.362 0 0 0-3.677.073 24.741 24.741 0 0 0-3.224.724 20.153 20.153 0 0 0-2.318.833q-.888.4-.96.434a11.551 11.551 0 0 0-2.029 1.757 7.063 7.063 0 0 0-1.322 2.065 5.655 5.655 0 0 0-.4 2.408 7.069 7.069 0 0 0 .779 2.789 5.124 5.124 0 0 0 3.006 2.028 6.641 6.641 0 0 0 3.984-.507 18.58 18.58 0 0 0 4.781-3.079 40.6 40.6 0 0 0 5.4-5.722.483.483 0 0 1 .652-.127.44.44 0 0 1 .217.6 39.124 39.124 0 0 1-3.1 7.063 27.339 27.339 0 0 1-3.477 4.836 16.487 16.487 0 0 1-3.586 3.006 15.291 15.291 0 0 1-3.441 1.558 11.393 11.393 0 0 1-3.079.507 13.22 13.22 0 0 1-2.445-.163 9.427 9.427 0 0 1-4.708-2.318 10.257 10.257 0 0 1-2.68-4.074 11.846 11.846 0 0 1-.616-5 13.942 13.942 0 0 1 1.431-5.107 14.314 14.314 0 0 1 3.441-4.4 14.121 14.121 0 0 1 5.487-2.9" transform="translate(-100.796 -4.13)"/>
            <path id="Tracé_2050" data-name="Tracé 2050" class="cls-3" d="M236.625 38.469a4.305 4.305 0 0 1 1.648.58 2.4 2.4 0 0 1 .869.978 2.668 2.668 0 0 1 .217 1.34 7.868 7.868 0 0 1-.308 1.63 19.55 19.55 0 0 1 1.413-1.412 22.024 22.024 0 0 1 1.829-1.5 13.751 13.751 0 0 1 1.883-1.177 3.28 3.28 0 0 1 1.612-.434 12.426 12.426 0 0 1 1.322.236 3.767 3.767 0 0 1 1.232.507 1.805 1.805 0 0 1 .67 2.372q-.29.58-.815 1.5t-1.068 1.992q-.543 1.069-.978 2.155a8.723 8.723 0 0 0-.561 1.974 2.391 2.391 0 0 0 .163 1.449 1.251 1.251 0 0 0 1.232.561 2.358 2.358 0 0 0 1.395-.561 11.91 11.91 0 0 0 1.5-1.376 20.469 20.469 0 0 0 1.449-1.739q.687-.924 1.2-1.684a.314.314 0 0 1 .434-.127.329.329 0 0 1 .181.416 18.3 18.3 0 0 1-1.413 3.169 22.6 22.6 0 0 1-2.3 3.423 15.059 15.059 0 0 1-2.879 2.753 5.305 5.305 0 0 1-3.115 1.123 4.444 4.444 0 0 1-2.137-.453 2.855 2.855 0 0 1-1.232-1.249 4 4 0 0 1-.38-1.883 8.738 8.738 0 0 1 .38-2.318 14.029 14.029 0 0 1 .869-2.354q.507-1.05.906-1.847a9.78 9.78 0 0 0 .561-1.3.664.664 0 0 0-.127-.761q-.362-.326-1.1.127a7.547 7.547 0 0 0-1.594 1.395 14.276 14.276 0 0 0-1.648 2.282 14.535 14.535 0 0 0-1.286 2.789 9.815 9.815 0 0 0-.525 2.915 5.186 5.186 0 0 0 .616 2.662 4.978 4.978 0 0 1-2.318.507 5.865 5.865 0 0 1-2.481-.525 4.323 4.323 0 0 1-1.829-1.557 3.347 3.347 0 0 1-.326-2.662 13.321 13.321 0 0 1 1.1-3.115q.706-1.376 1.5-2.753a32.9 32.9 0 0 0 1.521-2.988 17.58 17.58 0 0 0 1.159-3.857 1.512 1.512 0 0 1 .562-.906 1.273 1.273 0 0 1 1-.29" transform="translate(-145.879 -24.428)"/>
            <path id="Tracé_2051" data-name="Tracé 2051" class="cls-3" d="M288.425 39.07a1.01 1.01 0 0 1 .4-.525.953.953 0 0 1 .652-.163 12.458 12.458 0 0 1 1.322.236 3.785 3.785 0 0 1 1.231.507 1.8 1.8 0 0 1 .67 2.372q-.182.291-.616 1.051t-.942 1.756q-.507 1-.978 2.083a14.788 14.788 0 0 0-.724 2.028 4.836 4.836 0 0 0-.2 1.612.881.881 0 0 0 .67.851 1.766 1.766 0 0 0 1.612-.434 7.85 7.85 0 0 0 1.578-1.794 17.969 17.969 0 0 0 1.412-2.59q.652-1.448 1.2-2.844t.905-2.517q.362-1.122.544-1.594a.97.97 0 0 1 1.086-.688 8.016 8.016 0 0 1 1.322.2 3.784 3.784 0 0 1 1.232.507 1.806 1.806 0 0 1 .67 2.372q-.725 1.521-1.539 3.278t-1.756 3.5a31.917 31.917 0 0 1-2.064 3.314 15.453 15.453 0 0 1-2.463 2.735 9.8 9.8 0 0 1-2.97 1.775 7.833 7.833 0 0 1-3.549.434 2.735 2.735 0 0 1-2.463-.942 4.2 4.2 0 0 1-.652-2.572 14.822 14.822 0 0 1 .58-3.568q.543-1.974 1.267-3.93t1.467-3.676q.741-1.72 1.1-2.771" transform="translate(-180.403 -24.377)"/>
            <path id="Tracé_2052" data-name="Tracé 2052" class="cls-3" d="M332.914 33.138a2.358 2.358 0 0 0 1.395-.561 11.028 11.028 0 0 0 1.485-1.376 20.911 20.911 0 0 0 1.431-1.757q.688-.941 1.2-1.666a.314.314 0 0 1 .435-.127.329.329 0 0 1 .181.416 18.3 18.3 0 0 1-1.412 3.169 22.633 22.633 0 0 1-2.3 3.423 15.327 15.327 0 0 1-2.861 2.753 5.227 5.227 0 0 1-3.1 1.123 3.883 3.883 0 0 1-2.083-.489 2.78 2.78 0 0 1-1.122-1.322 4.291 4.291 0 0 1-.272-1.938 11.379 11.379 0 0 1 .434-2.373q.434-1.485.851-2.535t.906-2.191q.489-1.141 1.1-2.662t1.449-3.948a1.281 1.281 0 0 1 .416-.525.891.891 0 0 1 .634-.163 11.269 11.269 0 0 1 1.34.236 3.782 3.782 0 0 1 1.214.507 1.8 1.8 0 0 1 .67 2.372q-.291.58-.815 1.5T333.022 27q-.543 1.069-.978 2.155a8.7 8.7 0 0 0-.561 1.974 2.292 2.292 0 0 0 .181 1.449 1.293 1.293 0 0 0 1.249.561m2.137-23.144a3.327 3.327 0 0 1 1.322.272 3.444 3.444 0 0 1 1.087.724 3.5 3.5 0 0 1 .724 1.069 3.2 3.2 0 0 1 .271 1.3 3.285 3.285 0 0 1-.271 1.34 3.483 3.483 0 0 1-.724 1.068 3.432 3.432 0 0 1-1.087.724 3.327 3.327 0 0 1-1.322.271 3.284 3.284 0 0 1-1.34-.271 3.426 3.426 0 0 1-1.793-1.793 3.284 3.284 0 0 1-.271-1.34 3.2 3.2 0 0 1 .271-1.3 3.422 3.422 0 0 1 1.793-1.793 3.284 3.284 0 0 1 1.34-.272" transform="translate(-206.999 -6.348)"/>
            <path id="Tracé_2053" data-name="Tracé 2053" class="cls-3" d="M366.368 46.493a.367.367 0 0 1 .145.434 10.955 10.955 0 0 1-2.246 3.858 15.367 15.367 0 0 1-2.97 2.553 12.5 12.5 0 0 1-2.861 1.413 7.253 7.253 0 0 1-1.956.434 7.429 7.429 0 0 1-3.731-.815 5.107 5.107 0 0 1-2.083-2.155 6.4 6.4 0 0 1-.634-3.043 11.981 11.981 0 0 1 .615-3.477 15.7 15.7 0 0 1 1.649-3.477 15.943 15.943 0 0 1 2.463-3.042 11.914 11.914 0 0 1 3.078-2.155 7.931 7.931 0 0 1 3.5-.815 4.663 4.663 0 0 1 1.938.417 4.939 4.939 0 0 1 1.576 1.1 4.112 4.112 0 0 1 .941 1.594 2.965 2.965 0 0 1-.036 1.883 9.474 9.474 0 0 1-1.3 2.354 9.694 9.694 0 0 1-1.63 1.666 8.741 8.741 0 0 1-1.775 1.1 10.138 10.138 0 0 1-1.775.634 12.113 12.113 0 0 1-4.31.326 2.314 2.314 0 0 0 .145 1.938 2.267 2.267 0 0 0 1.412.888 5.732 5.732 0 0 0 2.228 0 14.946 14.946 0 0 0 2.626-.706 13.549 13.549 0 0 0 2.553-1.25 9.685 9.685 0 0 0 2.01-1.63.329.329 0 0 1 .434-.036m-5.94-6.737a6.375 6.375 0 0 0-1.412.8 8.387 8.387 0 0 0-1.286 1.177 11.45 11.45 0 0 0-1.1 1.467 10.068 10.068 0 0 0-.833 1.593 2.364 2.364 0 0 0 1.2-.018 6.15 6.15 0 0 0 1.395-.525 7.327 7.327 0 0 0 1.322-.869 5.118 5.118 0 0 0 1.014-1.1 2.774 2.774 0 0 0 .471-1.213 1.593 1.593 0 0 0-.326-1.159q-.108-.217-.434-.145" transform="translate(-222.344 -22.999)"/>
            <path id="Rectangle_434" data-name="Rectangle 434" class="cls-3" transform="translate(.688 62.579)" d="M0 0h194.312v2.285H0z"/>
            <path id="Tracé_2054" data-name="Tracé 2054" class="cls-3" d="m5.674 186.779 4.6 9.969h-1.3l-1.311-2.941H3.707L2.4 196.748H1.1zm0 2.522-1.608 3.53h3.215z" transform="translate(-.694 -118.644)"/>
            <path id="Tracé_2055" data-name="Tracé 2055" class="cls-3" d="M41.659 192.081h4.168v.321a4.748 4.748 0 0 1-1.353 3.576 5.082 5.082 0 0 1-3.691 1.31 6.212 6.212 0 0 1-1.356-.144 5.1 5.1 0 0 1-1.19-.419 4.7 4.7 0 0 1-1.918-1.791 5.006 5.006 0 0 1-.676-2.6 5.57 5.57 0 0 1 .4-2.165 4.715 4.715 0 0 1 1.218-1.7 4.594 4.594 0 0 1 1.587-.93 6.056 6.056 0 0 1 2-.315 5.9 5.9 0 0 1 2.525.5 4.427 4.427 0 0 1 1.773 1.51l-1.003.766a3.614 3.614 0 0 0-1.36-1.307 3.948 3.948 0 0 0-1.891-.436 3.811 3.811 0 0 0-2.857 1.126 4.045 4.045 0 0 0-1.1 2.947 3.787 3.787 0 0 0 1.114 2.817 3.872 3.872 0 0 0 2.839 1.1 3.727 3.727 0 0 0 2.529-.875 3.223 3.223 0 0 0 1.121-2.276h-2.879z" transform="translate(-22.64 -118.929)"/>
            <path id="Tracé_2056" data-name="Tracé 2056" class="cls-3" d="M76.924 197.41v-9.589h5.327v1.041h-4.126v2.751h4.126v1.062h-4.126v3.674h4.126v1.061z" transform="translate(-48.863 -119.306)"/>
            <path id="Tracé_2057" data-name="Tracé 2057" class="cls-3" d="M105.591 196.749v-9.969l7.39 7.663v-7.284h1.145v9.962l-7.39-7.578v7.2z" transform="translate(-67.072 -118.645)"/>
            <path id="Tracé_2058" data-name="Tracé 2058" class="cls-3" d="M151.486 189.714a4.879 4.879 0 0 0-1.546-1.1 4.5 4.5 0 0 0-1.815-.357 4.135 4.135 0 0 0-1.563.308 4 4 0 0 0-1.322.858 3.819 3.819 0 0 0-.869 1.274 4.048 4.048 0 0 0-.29 1.555 4.192 4.192 0 0 0 .172 1.232 3.457 3.457 0 0 0 .518 1.035 4.139 4.139 0 0 0 1.494 1.261 4.4 4.4 0 0 0 3.709.062 4.666 4.666 0 0 0 1.511-1.133v1.513a5.88 5.88 0 0 1-1.618.783 6.077 6.077 0 0 1-1.79.265 5.438 5.438 0 0 1-2.981-.884 5.044 5.044 0 0 1-1.687-1.788 4.759 4.759 0 0 1-.583-2.332 5.047 5.047 0 0 1 .39-2.014 4.845 4.845 0 0 1 1.19-1.647 5.219 5.219 0 0 1 1.711-1.058 5.816 5.816 0 0 1 2.049-.35 5.749 5.749 0 0 1 1.7.252 6.272 6.272 0 0 1 1.621.783z" transform="translate(-90.725 -118.907)"/>
            <path id="Tracé_2059" data-name="Tracé 2059" class="cls-3" d="M180.666 197.41v-9.589h5.327v1.041h-4.126v2.751h4.126v1.062h-4.126v3.674h4.126v1.061z" transform="translate(-114.761 -119.306)"/>
            <path id="Tracé_2060" data-name="Tracé 2060" class="cls-3" d="M229.242 197.409v-9.589h1.939a15.168 15.168 0 0 1 3.033.206 4.21 4.21 0 0 1 1.542.691 4.05 4.05 0 0 1 1.318 1.624 6.009 6.009 0 0 1 0 4.549 4 4 0 0 1-1.321 1.621 4.22 4.22 0 0 1-1.508.691 12.141 12.141 0 0 1-2.632.206h-2.374zm1.214-1.074h.766a14.381 14.381 0 0 0 2.581-.154 2.885 2.885 0 0 0 1.194-.527 3.115 3.115 0 0 0 .946-1.267 4.586 4.586 0 0 0 .324-1.778 4.537 4.537 0 0 0-.321-1.772 3.119 3.119 0 0 0-.949-1.261 2.9 2.9 0 0 0-1.211-.541 13.837 13.837 0 0 0-2.563-.161h-.766z" transform="translate(-145.617 -119.305)"/>
            <path id="Tracé_2061" data-name="Tracé 2061" class="cls-3" d="M265.815 197.41v-9.589h5.327v1.041h-4.126v2.751h4.126v1.062h-4.126v3.674h4.126v1.061z" transform="translate(-168.849 -119.306)"/>
            <path id="Tracé_2062" data-name="Tracé 2062" class="cls-3" d="m314.86 197.783-4.271-9.963h1.3l2.967 7.336 2.954-7.336h1.3z" transform="translate(-197.29 -119.305)"/>
            <path id="Tracé_2063" data-name="Tracé 2063" class="cls-3" d="M354.2 192.257a4.763 4.763 0 0 1-.4 1.939 4.836 4.836 0 0 1-1.167 1.617 5.468 5.468 0 0 1-1.764 1.091 5.716 5.716 0 0 1-2.068.383 5.658 5.658 0 0 1-2.061-.383 5.484 5.484 0 0 1-1.757-1.091 4.9 4.9 0 0 1-1.177-1.624 4.844 4.844 0 0 1 0-3.874 4.893 4.893 0 0 1 1.177-1.628 5.4 5.4 0 0 1 1.754-1.081 5.823 5.823 0 0 1 4.139 0 5.4 5.4 0 0 1 1.758 1.081 4.769 4.769 0 0 1 1.567 3.569m-5.4 3.956a4.2 4.2 0 0 0 2.928-1.166 3.9 3.9 0 0 0 .905-1.277 3.757 3.757 0 0 0 .31-1.513 3.847 3.847 0 0 0-1.216-2.816 4.134 4.134 0 0 0-1.343-.858 4.436 4.436 0 0 0-3.18 0 4.108 4.108 0 0 0-2.238 2.149 3.813 3.813 0 0 0-.311 1.526 3.742 3.742 0 0 0 .307 1.507 3.965 3.965 0 0 0 .908 1.284 4.166 4.166 0 0 0 2.928 1.166" transform="translate(-218.13 -118.929)"/>
            <path id="Tracé_2064" data-name="Tracé 2064" class="cls-3" d="M385.606 197.41v-4.388l-3.422-5.2h1.387l2.643 4.159 2.629-4.159h1.38l-3.415 5.2v4.388z" transform="translate(-242.767 -119.306)"/>
            <path id="Tracé_2065" data-name="Tracé 2065" class="cls-3" d="m414.77 186.779 4.6 9.969h-1.3l-1.311-2.941H412.8l-1.311 2.941h-1.3zm0 2.522-1.608 3.53h3.215z" transform="translate(-260.556 -118.644)"/>
            <path id="Tracé_2066" data-name="Tracé 2066" class="cls-3" d="M450.754 192.081h4.168v.321a4.749 4.749 0 0 1-1.352 3.576 5.083 5.083 0 0 1-3.692 1.31 6.215 6.215 0 0 1-1.356-.144 5.1 5.1 0 0 1-1.19-.419 4.7 4.7 0 0 1-1.918-1.791 5.006 5.006 0 0 1-.676-2.6 5.569 5.569 0 0 1 .4-2.165 4.724 4.724 0 0 1 1.218-1.7 4.592 4.592 0 0 1 1.587-.93 6.054 6.054 0 0 1 2-.315 5.9 5.9 0 0 1 2.525.5 4.427 4.427 0 0 1 1.773 1.51l-1.007.766a3.615 3.615 0 0 0-1.359-1.307 3.949 3.949 0 0 0-1.891-.436 3.812 3.812 0 0 0-2.857 1.126 4.045 4.045 0 0 0-1.1 2.947 3.787 3.787 0 0 0 1.114 2.817 3.872 3.872 0 0 0 2.839 1.1 3.727 3.727 0 0 0 2.529-.875 3.222 3.222 0 0 0 1.121-2.276h-2.884z" transform="translate(-282.502 -118.929)"/>
            <path id="Tracé_2067" data-name="Tracé 2067" class="cls-3" d="M486.02 197.41v-9.589h5.327v1.041h-4.126v2.751h4.126v1.062h-4.126v3.674h4.126v1.061z" transform="translate(-308.726 -119.306)"/>
            <path id="Tracé_2068" data-name="Tracé 2068" class="cls-3" d="M517.212 191.686a3.411 3.411 0 0 1 1.487 1.061 2.524 2.524 0 0 1 .5 1.566 2.75 2.75 0 0 1-.886 2.132 3.783 3.783 0 0 1-4.35.229 2.845 2.845 0 0 1-1.09-1.647l1.09-.511a2.539 2.539 0 0 0 .728 1.32 1.853 1.853 0 0 0 1.273.448 2.125 2.125 0 0 0 1.463-.494 1.638 1.638 0 0 0 .559-1.287 1.707 1.707 0 0 0-.39-1.117 2.965 2.965 0 0 0-1.177-.8l-1.228-.5a3.485 3.485 0 0 1-1.5-1.028 2.364 2.364 0 0 1-.494-1.507 2.107 2.107 0 0 1 .8-1.69 3.078 3.078 0 0 1 2.042-.668 3.222 3.222 0 0 1 1.577.366 2.544 2.544 0 0 1 1.039 1.081l-.994.6a2.508 2.508 0 0 0-.759-.829 1.716 1.716 0 0 0-.952-.272 1.58 1.58 0 0 0-1.107.393 1.363 1.363 0 0 0-.1 1.886 2.765 2.765 0 0 0 1.028.662z" transform="translate(-325.782 -118.907)"/>
        </g>
    </g>
</svg>
