<svg id="Groupe_1161" data-name="Groupe 1161" xmlns="http://www.w3.org/2000/svg" width="255.608" height="102.869" viewBox="0 0 255.608 102.869">
    <defs>
        <clipPath id="clip-path">
            <path id="Rectangle_427" data-name="Rectangle 427" class="cls-1" d="M0 0h255.608v102.869H0z"/>
        </clipPath>
        <clipPath id="clip-path-2">
            <path id="Tracé_2015" data-name="Tracé 2015" class="cls-1" d="M47.188 67.416a3.333 3.333 0 0 0-.92 1.5c1.662.841 1.683 4.656 1 6.178-.99 2.2-2.358 1.617-2.533-.571a17.378 17.378 0 0 1 .244-3.831 5.641 5.641 0 0 1 2.212-3.273m-1.574-44.645a9.836 9.836 0 0 0-2.341 7.641c.652 4.49 4.6 7.286 6.561 9.216a2.773 2.773 0 0 1 .192 3.9c-10.743-1.969-14.963 2.678-14.963 2.678-1.88-2.048-5.525-2.639-5.525-2.639-7.866-1.457-9.592 5.238-9.592 5.238l4.8-.2a5.084 5.084 0 0 0-2.839 3.741c-.077.276 1.573.551 3.952-.354a3.65 3.65 0 0 0 2.264-3.466s1.074 3.033-1.842 4.1c-5.04 1.838-3.249 12.82-.584 15.554a21.741 21.741 0 0 1 2.262-4.562c.091-.121.176-.245.258-.372 6.366-9 18.363-9.22 18.363-9.22C36.01 53.377 31.9 57.256 31.9 57.256c5.739-11.851 12.735-10.473 19-9.095 3.25.715 6.3 1.43 8.877.3C56.05 65.1 47.552 64.259 39.693 63.416c-3.994-.428-7.823-.856-10.778 1.009a7.529 7.529 0 0 0-2.563 2.6c3.066-3.746 12.993-3.353 14.839 3.719.431 1.652.966 4.688-.021 5.854-1.046 1.235-3.151 1.1-4.3 2.394a20.35 20.35 0 0 1 13.7 2.127c-.576-1.576-2.724-2.245-2.724-2.245a25.013 25.013 0 0 1 5.678 1.26c-1.88-1.772-5.487-2.56-5.487-2.56 6.791-.315 8.595 1.615 8.595 1.615-.192-.827-2.3-1.93-2.3-1.93a13.753 13.753 0 0 1 5.563.827 10.862 10.862 0 0 0-5.754-2.126 5.691 5.691 0 0 1 3.069-.414 38.412 38.412 0 0 0-5.985-.669 4.571 4.571 0 0 1-1.3-4.111 6.078 6.078 0 0 1 3.108-3.545 63.656 63.656 0 0 0 5.909-3.347c5.958-4.053 10.604-14.727 6.951-21.784-1.885-3.645-5.869-5.335-10.529-7.442a6.2 6.2 0 0 1-3.721-4.017 5.035 5.035 0 0 0 4.029 3.111 5.457 5.457 0 0 1 5.448.315 3.075 3.075 0 0 0 4.489-.945c-1.841-3.427-7.174-3.821-7.174-3.821 8.632.237 8.594 5.947 8.594 5.947 3.181-5.655.23-8.625.23-8.625-3.99-3.584-8.518-.591-8.518-.591-.942-3.466-4.972-4.962-4.972-4.962a8.37 8.37 0 0 0-2.749-.48 7.877 7.877 0 0 0-5.4 2.193" transform="translate(-19.949 -20.581)"/>
        </clipPath>
        <style>
            .cls-1{fill:none}.cls-2{clip-path:url(#clip-path)}.cls-3{fill:#c39675}.cls-7{fill:#9f6d53}
        </style>
    </defs>
    <g id="Groupe_1156" data-name="Groupe 1156">
        <g id="Groupe_1155" data-name="Groupe 1155" class="cls-2">
            <path id="Tracé_2003" data-name="Tracé 2003" class="cls-3" d="M228.493 101.623v22.53h-2.328v-2.413a5.9 5.9 0 0 1-2.144 2.209 5.715 5.715 0 0 1-2.94.77 6.349 6.349 0 0 1-4.862-1.97 8.359 8.359 0 0 1-.038-10.429 6.246 6.246 0 0 1 4.808-1.948 5.92 5.92 0 0 1 3.032.749 5.518 5.518 0 0 1 2.082 2.231v-11.73zm-2.328 15.946a4.965 4.965 0 0 0-1.3-3.583 4.531 4.531 0 0 0-3.43-1.359 4.406 4.406 0 0 0-3.323 1.235 4.712 4.712 0 0 0-1.194 3.417 5.658 5.658 0 0 0 1.21 3.844 4.2 4.2 0 0 0 3.338 1.388 4.545 4.545 0 0 0 3.453-1.308 5.052 5.052 0 0 0 1.248-3.634" transform="translate(-111.867 -53.03)"/>
            <path id="Tracé_2004" data-name="Tracé 2004" class="cls-3" d="m252.867 111.127 2.909-7.893 2.6.857-3.751 7.719z" transform="translate(-131.954 -53.871)"/>
            <path id="Tracé_2005" data-name="Tracé 2005" class="cls-3" d="m277.7 102.474 10.2 22.126H285l-2.91-6.527h-8.759l-2.909 6.527h-2.894zm0 5.6-3.568 7.835h7.136z" transform="translate(-139.607 -53.474)"/>
            <path id="Rectangle_426" data-name="Rectangle 426" class="cls-3" transform="translate(150.635 49.843)" d="M0 0h2.664v21.28H0z"/>
            <path id="Tracé_2006" data-name="Tracé 2006" class="cls-3" d="M331.932 125.517v-21.28h2.668V123.1h8.468v2.413z" transform="translate(-173.213 -54.394)"/>
            <path id="Tracé_2007" data-name="Tracé 2007" class="cls-3" d="M361.842 125.517v-21.28h2.664V123.1h8.468v2.413z" transform="translate(-188.82 -54.394)"/>
            <path id="Tracé_2008" data-name="Tracé 2008" class="cls-3" d="M391.752 125.517v-21.28h11.822v2.311h-9.157v6.105h9.157v2.355h-9.157v8.154h9.157v2.355z" transform="translate(-204.428 -54.394)"/>
            <path id="Tracé_2009" data-name="Tracé 2009" class="cls-3" d="M425.729 104.237h2.695v13.241a6.659 6.659 0 0 0 1.447 4.739 7.575 7.575 0 0 0 9.08 0 6.659 6.659 0 0 0 1.447-4.739v-13.241h2.711v13.241q0 4.318-2.168 6.461t-6.53 2.144q-4.349 0-6.516-2.144t-2.167-6.461z" transform="translate(-222.159 -54.394)"/>
            <path id="Tracé_2010" data-name="Tracé 2010" class="cls-3" d="M473.155 125.518v-21.28h5.267a16.3 16.3 0 0 1 3.3.24 4.973 4.973 0 0 1 1.845.821 4.882 4.882 0 0 1 1.546 1.984 6.717 6.717 0 0 1 .551 2.755 5.023 5.023 0 0 1-1.539 3.975 6.616 6.616 0 0 1-4.51 1.359h-.475l8.56 10.146h-3.384l-8.177-10.146h-.383v10.146zm2.6-19.144v7.126h2.037q3.124 0 4.181-.763a3.073 3.073 0 0 0 1.056-2.667 3.383 3.383 0 0 0-1.087-2.87q-1.088-.821-4.15-.821z" transform="translate(-246.907 -54.395)"/>
            <path id="Tracé_2011" data-name="Tracé 2011" class="cls-3" d="M514.81 113.145a7.572 7.572 0 0 1 3.3 2.355 5.6 5.6 0 0 1 1.111 3.473 6.1 6.1 0 0 1-1.968 4.731 8.392 8.392 0 0 1-9.655.509 6.32 6.32 0 0 1-2.42-3.655l2.42-1.134a5.645 5.645 0 0 0 1.616 2.929 4.108 4.108 0 0 0 2.825 1 4.717 4.717 0 0 0 3.246-1.1 3.636 3.636 0 0 0 1.24-2.857 3.787 3.787 0 0 0-.865-2.478 6.56 6.56 0 0 0-2.611-1.781l-2.726-1.1a7.744 7.744 0 0 1-3.33-2.282 5.251 5.251 0 0 1-1.095-3.343 4.677 4.677 0 0 1 1.776-3.75 6.833 6.833 0 0 1 4.533-1.482 7.141 7.141 0 0 1 3.5.814 5.634 5.634 0 0 1 2.3 2.4l-2.2 1.337a5.581 5.581 0 0 0-1.684-1.839 3.819 3.819 0 0 0-2.113-.6 3.508 3.508 0 0 0-2.458.872 3.028 3.028 0 0 0-.222 4.186 6.156 6.156 0 0 0 2.282 1.467z" transform="translate(-263.617 -53.839)"/>
            <path id="Tracé_2012" data-name="Tracé 2012" class="cls-3" d="M1.886 66.864s69.441-19.683 69.441 0S55.782 102.5 36.606 102.5 1.886 86.547 1.886 66.864" transform="translate(-.984 -30.327)"/>
            <path id="Tracé_2013" data-name="Tracé 2013" d="M71.326 37.526s-69.441 19.683-69.441 0S17.43 1.886 36.606 1.886s34.72 15.957 34.72 35.64" transform="translate(-.984 -.984)" style="fill:#0090df"/>
            <path id="Tracé_2014" data-name="Tracé 2014" class="cls-3" d="M35.622 73.085C15.98 73.085 0 56.692 0 36.543S15.98 0 35.622 0s35.622 16.393 35.622 36.543-15.98 36.542-35.622 36.542m0-71.28C16.975 1.8 1.8 17.388 1.8 36.543s15.175 34.738 33.822 34.738S69.441 55.7 69.441 36.543 54.269 1.8 35.622 1.8"/>
        </g>
    </g>
    <g id="Groupe_1158" data-name="Groupe 1158" transform="translate(9.539 9.841)">
        <g id="Groupe_1157" data-name="Groupe 1157" style="clip-path:url(#clip-path-2)">
            <path id="Rectangle_428" data-name="Rectangle 428" transform="translate(0 -1.234)" style="fill:#fff" d="M0 0h50.261v61.769H0z"/>
        </g>
    </g>
    <g id="Groupe_1160" data-name="Groupe 1160">
        <g id="Groupe_1159" data-name="Groupe 1159" class="cls-2">
            <path id="Tracé_2016" data-name="Tracé 2016" class="cls-7" d="M172.319 29.394a6.374 6.374 0 0 1-2.944-3.2 10.01 10.01 0 0 1-.736-4.653 15.146 15.146 0 0 1 1.353-5.2 17.238 17.238 0 0 1 3.252-4.843 16.493 16.493 0 0 1 4.961-3.56 15.07 15.07 0 0 1 6.552-1.377 17.251 17.251 0 0 1 4.819.261 13.241 13.241 0 0 1 3.537 1.258 8.063 8.063 0 0 1 2.374 1.9 8.771 8.771 0 0 1 1.377 2.255 8.4 8.4 0 0 1 .593 2.232 6.673 6.673 0 0 1-.024 1.875 11.434 11.434 0 0 1-1.377 3.608 12.467 12.467 0 0 1-1.994 2.563 5.827 5.827 0 0 1-1.971 1.329q-.926.333-1.258-.142a.591.591 0 0 1 0-.712q.379-.664.854-1.686a12.03 12.03 0 0 0 .76-2.16 9.56 9.56 0 0 0 .285-2.327 4.631 4.631 0 0 0-.522-2.184 4.191 4.191 0 0 0-1.662-1.662 7.294 7.294 0 0 0-3.133-.807 10.933 10.933 0 0 0-4.985 1.068 12.5 12.5 0 0 0-3.869 2.8 9.322 9.322 0 0 0-2.137 3.751 5.529 5.529 0 0 0 .262 3.941 7.644 7.644 0 0 0 3.323 3.3 18.031 18.031 0 0 0 7.027 1.9 4.717 4.717 0 0 1 1.9.4 2.44 2.44 0 0 1 1.021.855 1.674 1.674 0 0 1 .261 1.044 1.92 1.92 0 0 1-.356.973 2.053 2.053 0 0 1-.831.665 1.734 1.734 0 0 1-1.139.095 17.516 17.516 0 0 0-4.819.1 32.43 32.43 0 0 0-4.226.949 26.413 26.413 0 0 0-3.038 1.092q-1.164.523-1.258.569a15.141 15.141 0 0 0-2.659 2.3 9.258 9.258 0 0 0-1.733 2.706 7.413 7.413 0 0 0-.522 3.157 9.266 9.266 0 0 0 1.021 3.656 6.717 6.717 0 0 0 3.941 2.659 8.706 8.706 0 0 0 5.223-.665 24.354 24.354 0 0 0 6.267-4.036 53.22 53.22 0 0 0 7.074-7.5.632.632 0 0 1 .854-.166.576.576 0 0 1 .285.783 51.283 51.283 0 0 1-4.059 9.258 35.836 35.836 0 0 1-4.558 6.339 21.612 21.612 0 0 1-4.7 3.941 20.044 20.044 0 0 1-4.51 2.042 14.935 14.935 0 0 1-4.036.664 17.33 17.33 0 0 1-3.2-.214 12.358 12.358 0 0 1-6.172-3.039 13.445 13.445 0 0 1-3.514-5.341 15.527 15.527 0 0 1-.807-6.552 18.274 18.274 0 0 1 1.875-6.694 18.764 18.764 0 0 1 4.511-5.769 18.51 18.51 0 0 1 7.193-3.8" transform="translate(-82.805 -3.393)"/>
            <path id="Tracé_2017" data-name="Tracé 2017" class="cls-7" d="M238.791 38.473a5.643 5.643 0 0 1 2.16.76 3.146 3.146 0 0 1 1.139 1.282 3.5 3.5 0 0 1 .285 1.756 10.313 10.313 0 0 1-.4 2.136 25.623 25.623 0 0 1 1.852-1.851 28.869 28.869 0 0 1 2.4-1.971 18.023 18.023 0 0 1 2.469-1.543 4.3 4.3 0 0 1 2.113-.569 16.288 16.288 0 0 1 1.733.309 4.938 4.938 0 0 1 1.614.665 2.367 2.367 0 0 1 .878 3.11q-.38.76-1.068 1.971t-1.4 2.611q-.712 1.4-1.282 2.825a11.434 11.434 0 0 0-.736 2.587 3.134 3.134 0 0 0 .214 1.9 1.64 1.64 0 0 0 1.614.736 3.091 3.091 0 0 0 1.828-.736 15.612 15.612 0 0 0 1.97-1.8 26.828 26.828 0 0 0 1.9-2.279q.9-1.211 1.566-2.208a.412.412 0 0 1 .569-.166.432.432 0 0 1 .238.546 23.993 23.993 0 0 1-1.852 4.154 29.626 29.626 0 0 1-3.014 4.487 19.74 19.74 0 0 1-3.774 3.608 6.955 6.955 0 0 1-4.083 1.472 5.825 5.825 0 0 1-2.8-.593 3.742 3.742 0 0 1-1.614-1.638 5.248 5.248 0 0 1-.5-2.469 11.453 11.453 0 0 1 .5-3.039 18.392 18.392 0 0 1 1.139-3.086q.665-1.376 1.187-2.421a12.816 12.816 0 0 0 .736-1.709.87.87 0 0 0-.166-1q-.475-.427-1.448.166a9.893 9.893 0 0 0-2.089 1.828 18.715 18.715 0 0 0-2.16 2.991 19.053 19.053 0 0 0-1.686 3.656 12.866 12.866 0 0 0-.689 3.822 6.8 6.8 0 0 0 .807 3.49 6.525 6.525 0 0 1-3.039.665 7.688 7.688 0 0 1-3.252-.689 5.667 5.667 0 0 1-2.4-2.041 4.388 4.388 0 0 1-.427-3.49 17.461 17.461 0 0 1 1.448-4.083q.926-1.8 1.97-3.608a43.115 43.115 0 0 0 1.989-3.917 23.046 23.046 0 0 0 1.519-5.056 1.982 1.982 0 0 1 .736-1.187 1.669 1.669 0 0 1 1.305-.38" transform="translate(-119.841 -20.068)"/>
            <path id="Tracé_2018" data-name="Tracé 2018" class="cls-7" d="M289.8 39.286a1.324 1.324 0 0 1 .522-.689 1.249 1.249 0 0 1 .855-.214 16.332 16.332 0 0 1 1.733.309 4.961 4.961 0 0 1 1.614.665 2.366 2.366 0 0 1 .878 3.11q-.238.381-.807 1.377t-1.235 2.3q-.665 1.306-1.281 2.73a19.387 19.387 0 0 0-.95 2.659 6.339 6.339 0 0 0-.261 2.113 1.154 1.154 0 0 0 .878 1.116 2.315 2.315 0 0 0 2.113-.569 10.29 10.29 0 0 0 2.066-2.35 23.561 23.561 0 0 0 1.852-3.395q.854-1.9 1.566-3.727t1.187-3.3q.475-1.471.712-2.089a1.272 1.272 0 0 1 1.424-.9 10.507 10.507 0 0 1 1.733.262 4.96 4.96 0 0 1 1.614.665 2.367 2.367 0 0 1 .878 3.11q-.95 1.994-2.018 4.3t-2.3 4.581a41.835 41.835 0 0 1-2.706 4.344 20.257 20.257 0 0 1-3.229 3.585 12.851 12.851 0 0 1-3.893 2.326 10.267 10.267 0 0 1-4.653.57 3.584 3.584 0 0 1-3.229-1.234 5.512 5.512 0 0 1-.854-3.371 19.43 19.43 0 0 1 .76-4.676q.712-2.587 1.661-5.151t1.923-4.819q.972-2.254 1.448-3.632" transform="translate(-148.202 -20.026)"/>
            <path id="Tracé_2019" data-name="Tracé 2019" class="cls-7" d="M335.1 40.332a3.091 3.091 0 0 0 1.828-.736 14.461 14.461 0 0 0 1.946-1.8 27.406 27.406 0 0 0 1.875-2.3q.9-1.234 1.567-2.184a.412.412 0 0 1 .57-.166.432.432 0 0 1 .237.546 23.987 23.987 0 0 1-1.851 4.154 29.666 29.666 0 0 1-3.015 4.487 20.09 20.09 0 0 1-3.751 3.608 6.851 6.851 0 0 1-4.059 1.472 5.09 5.09 0 0 1-2.73-.641 3.644 3.644 0 0 1-1.471-1.733 5.625 5.625 0 0 1-.356-2.54 14.921 14.921 0 0 1 .569-3.11q.57-1.946 1.116-3.323t1.187-2.872q.641-1.5 1.448-3.49t1.9-5.175a1.679 1.679 0 0 1 .546-.689 1.168 1.168 0 0 1 .832-.214 14.771 14.771 0 0 1 1.756.309 4.957 4.957 0 0 1 1.591.665 2.365 2.365 0 0 1 .878 3.11q-.381.76-1.068 1.971t-1.4 2.611q-.712 1.4-1.281 2.825a11.406 11.406 0 0 0-.736 2.588 3 3 0 0 0 .238 1.9 1.7 1.7 0 0 0 1.638.736m2.8-30.338a4.361 4.361 0 0 1 1.733.356 4.513 4.513 0 0 1 1.424.949 4.585 4.585 0 0 1 .95 1.4 4.194 4.194 0 0 1 .356 1.709 4.305 4.305 0 0 1-.356 1.757 4.566 4.566 0 0 1-.95 1.4 4.5 4.5 0 0 1-1.424.95 4.36 4.36 0 0 1-1.733.356 4.3 4.3 0 0 1-1.757-.356 4.49 4.49 0 0 1-2.35-2.35 4.3 4.3 0 0 1-.356-1.757 4.194 4.194 0 0 1 .359-1.717 4.486 4.486 0 0 1 2.35-2.35 4.305 4.305 0 0 1 1.757-.356" transform="translate(-170.051 -5.215)"/>
            <path id="Tracé_2020" data-name="Tracé 2020" class="cls-7" d="M371.445 49.69a.481.481 0 0 1 .19.569 14.36 14.36 0 0 1-2.944 5.057 20.144 20.144 0 0 1-3.893 3.347 16.39 16.39 0 0 1-3.751 1.852 9.508 9.508 0 0 1-2.563.57 9.738 9.738 0 0 1-4.891-1.068 6.694 6.694 0 0 1-2.73-2.825 8.385 8.385 0 0 1-.831-3.988 15.7 15.7 0 0 1 .807-4.557A20.58 20.58 0 0 1 353 44.088a20.9 20.9 0 0 1 3.228-3.988 15.618 15.618 0 0 1 4.035-2.825 10.4 10.4 0 0 1 4.582-1.068 6.113 6.113 0 0 1 2.54.546 6.473 6.473 0 0 1 2.065 1.448 5.39 5.39 0 0 1 1.234 2.089 3.886 3.886 0 0 1-.047 2.469 12.42 12.42 0 0 1-1.709 3.086 12.708 12.708 0 0 1-2.136 2.184 11.458 11.458 0 0 1-2.327 1.448 13.289 13.289 0 0 1-2.326.831 15.878 15.878 0 0 1-5.65.427 3.034 3.034 0 0 0 .19 2.54 2.971 2.971 0 0 0 1.851 1.163 7.514 7.514 0 0 0 2.92 0 19.59 19.59 0 0 0 3.442-.926 17.76 17.76 0 0 0 3.347-1.638 12.7 12.7 0 0 0 2.635-2.136.431.431 0 0 1 .57-.047m-7.786-8.831a8.358 8.358 0 0 0-1.852 1.045 11 11 0 0 0-1.686 1.543 15.01 15.01 0 0 0-1.448 1.923 13.2 13.2 0 0 0-1.092 2.089 3.1 3.1 0 0 0 1.566-.024 8.059 8.059 0 0 0 1.828-.688 9.606 9.606 0 0 0 1.733-1.139 6.708 6.708 0 0 0 1.329-1.448 3.636 3.636 0 0 0 .617-1.59 2.088 2.088 0 0 0-.427-1.52q-.142-.285-.569-.19" transform="translate(-182.657 -18.894)"/>
            <path id="Rectangle_429" data-name="Rectangle 429" class="cls-3" transform="translate(.902 82.029)" d="M0 0h254.706v2.995H0z"/>
            <path id="Tracé_2021" data-name="Tracé 2021" class="cls-3" d="m7.1 186.779 6.024 13.067h-1.71l-1.718-3.855H4.52l-1.72 3.855H1.092zm0 3.306-2.107 4.628h4.212z" transform="translate(-.57 -97.467)"/>
            <path id="Tracé_2022" data-name="Tracé 2022" class="cls-3" d="M43.529 193.59h5.463v.421a6.224 6.224 0 0 1-1.773 4.688 6.661 6.661 0 0 1-4.839 1.717 8.143 8.143 0 0 1-1.777-.188 6.687 6.687 0 0 1-1.56-.55 6.161 6.161 0 0 1-2.515-2.348 6.561 6.561 0 0 1-.886-3.4 7.3 7.3 0 0 1 .529-2.837 6.181 6.181 0 0 1 1.6-2.228 6.022 6.022 0 0 1 2.08-1.219 7.938 7.938 0 0 1 2.623-.413 7.737 7.737 0 0 1 3.31.657 5.8 5.8 0 0 1 2.324 1.979l-1.32 1A4.737 4.737 0 0 0 45 189.155a5.175 5.175 0 0 0-2.478-.571 5 5 0 0 0-3.745 1.477 5.3 5.3 0 0 0-1.438 3.864 4.964 4.964 0 0 0 1.461 3.692 5.075 5.075 0 0 0 3.722 1.443 4.886 4.886 0 0 0 3.315-1.147 4.225 4.225 0 0 0 1.47-2.983h-3.778z" transform="translate(-18.599 -97.701)"/>
            <path id="Tracé_2023" data-name="Tracé 2023" class="cls-3" d="M76.924 200.39v-12.57h6.983v1.365H78.5v3.606h5.409v1.391H78.5V199h5.409v1.391z" transform="translate(-40.141 -98.011)"/>
            <path id="Tracé_2024" data-name="Tracé 2024" class="cls-3" d="M105.591 199.847V186.78l9.687 10.045v-9.548h1.5v13.059l-9.687-9.934v9.444z" transform="translate(-55.1 -97.467)"/>
            <path id="Tracé_2025" data-name="Tracé 2025" class="cls-3" d="M154.177 190.5a6.4 6.4 0 0 0-2.026-1.446 5.9 5.9 0 0 0-2.379-.468 5.42 5.42 0 0 0-2.048.4 5.238 5.238 0 0 0-1.732 1.125 5.006 5.006 0 0 0-1.139 1.67 5.306 5.306 0 0 0-.38 2.039 5.5 5.5 0 0 0 .226 1.614 4.532 4.532 0 0 0 .679 1.357 5.426 5.426 0 0 0 1.958 1.653 5.763 5.763 0 0 0 4.862.082 6.117 6.117 0 0 0 1.981-1.485v1.983a7.709 7.709 0 0 1-2.121 1.026 7.966 7.966 0 0 1-2.347.348 7.128 7.128 0 0 1-3.908-1.159 6.612 6.612 0 0 1-2.212-2.344 6.238 6.238 0 0 1-.764-3.056 6.615 6.615 0 0 1 .511-2.64 6.351 6.351 0 0 1 1.56-2.159 6.841 6.841 0 0 1 2.243-1.387 7.624 7.624 0 0 1 2.686-.459 7.536 7.536 0 0 1 2.225.33 8.221 8.221 0 0 1 2.125 1.026z" transform="translate(-74.531 -97.683)"/>
            <path id="Tracé_2026" data-name="Tracé 2026" class="cls-3" d="M180.666 200.39v-12.57h6.983v1.365h-5.409v3.606h5.409v1.391h-5.409V199h5.409v1.391z" transform="translate(-94.277 -98.011)"/>
            <path id="Tracé_2027" data-name="Tracé 2027" class="cls-3" d="M229.242 200.39v-12.57h2.541a19.881 19.881 0 0 1 3.975.271 5.518 5.518 0 0 1 2.022.906 5.309 5.309 0 0 1 1.728 2.129 7.877 7.877 0 0 1 0 5.963 5.249 5.249 0 0 1-1.732 2.125 5.531 5.531 0 0 1-1.976.906 15.917 15.917 0 0 1-3.45.27h-3.111zm1.592-1.408h1a18.85 18.85 0 0 0 3.383-.2 3.782 3.782 0 0 0 1.565-.691 4.083 4.083 0 0 0 1.239-1.661 6.01 6.01 0 0 0 .425-2.331 5.947 5.947 0 0 0-.421-2.322 4.089 4.089 0 0 0-1.244-1.653 3.8 3.8 0 0 0-1.587-.709 18.137 18.137 0 0 0-3.36-.21h-1z" transform="translate(-119.626 -98.01)"/>
            <path id="Tracé_2028" data-name="Tracé 2028" class="cls-3" d="M265.815 200.39v-12.57h6.985v1.365h-5.409v3.606h5.409v1.391h-5.409V199h5.409v1.391z" transform="translate(-138.711 -98.011)"/>
            <path id="Tracé_2029" data-name="Tracé 2029" class="cls-3" d="m316.187 200.879-5.6-13.059h1.713l3.889 9.616 3.872-9.616h1.7z" transform="translate(-162.075 -98.01)"/>
            <path id="Tracé_2030" data-name="Tracé 2030" class="cls-3" d="M357.552 193.821a6.242 6.242 0 0 1-.525 2.542 6.338 6.338 0 0 1-1.529 2.12 7.167 7.167 0 0 1-2.312 1.43 7.494 7.494 0 0 1-2.711.5 7.418 7.418 0 0 1-2.7-.5 7.188 7.188 0 0 1-2.3-1.43 6.421 6.421 0 0 1-1.543-2.129 6.349 6.349 0 0 1 0-5.078 6.413 6.413 0 0 1 1.543-2.134 7.083 7.083 0 0 1 2.3-1.417 7.633 7.633 0 0 1 5.425 0 7.079 7.079 0 0 1 2.3 1.417 6.252 6.252 0 0 1 2.054 4.679m-7.077 5.186a5.505 5.505 0 0 0 3.838-1.528 5.108 5.108 0 0 0 1.185-1.679 4.925 4.925 0 0 0 .407-1.984 5.043 5.043 0 0 0-1.593-3.691 5.419 5.419 0 0 0-1.76-1.125 5.815 5.815 0 0 0-4.169 0 5.385 5.385 0 0 0-2.933 2.816 5 5 0 0 0-.407 2 4.907 4.907 0 0 0 .4 1.975 5.2 5.2 0 0 0 1.191 1.683 5.461 5.461 0 0 0 3.838 1.528" transform="translate(-179.195 -97.701)"/>
            <path id="Tracé_2031" data-name="Tracé 2031" class="cls-3" d="M386.669 200.39v-5.752l-4.486-6.817H384l3.464 5.452 3.446-5.452h1.809l-4.477 6.817v5.752z" transform="translate(-199.435 -98.011)"/>
            <path id="Tracé_2032" data-name="Tracé 2032" class="cls-3" d="m416.194 186.779 6.024 13.067h-1.71l-1.718-3.855h-5.174l-1.718 3.855h-1.71zm0 3.306-2.107 4.628h4.213z" transform="translate(-214.049 -97.467)"/>
            <path id="Tracé_2033" data-name="Tracé 2033" class="cls-3" d="M452.624 193.59h5.463v.421a6.225 6.225 0 0 1-1.773 4.688 6.663 6.663 0 0 1-4.839 1.717 8.147 8.147 0 0 1-1.777-.188 6.687 6.687 0 0 1-1.56-.55 6.167 6.167 0 0 1-2.515-2.348 6.561 6.561 0 0 1-.886-3.4 7.3 7.3 0 0 1 .529-2.837 6.193 6.193 0 0 1 1.6-2.228 6.02 6.02 0 0 1 2.081-1.219 7.936 7.936 0 0 1 2.623-.413 7.734 7.734 0 0 1 3.31.657 5.8 5.8 0 0 1 2.324 1.979l-1.32 1a4.74 4.74 0 0 0-1.782-1.713 5.177 5.177 0 0 0-2.479-.571 5 5 0 0 0-3.745 1.477 5.3 5.3 0 0 0-1.438 3.864 4.964 4.964 0 0 0 1.461 3.692 5.075 5.075 0 0 0 3.722 1.443 4.885 4.885 0 0 0 3.315-1.147 4.223 4.223 0 0 0 1.47-2.983h-3.781z" transform="translate(-232.077 -97.701)"/>
            <path id="Tracé_2034" data-name="Tracé 2034" class="cls-3" d="M486.02 200.39v-12.57H493v1.365h-5.409v3.606H493v1.391h-5.409V199H493v1.391z" transform="translate(-253.62 -98.011)"/>
            <path id="Tracé_2035" data-name="Tracé 2035" class="cls-3" d="M518.561 193.083a4.471 4.471 0 0 1 1.949 1.391 3.308 3.308 0 0 1 .656 2.052A3.6 3.6 0 0 1 520 199.32a4.959 4.959 0 0 1-5.7.3 3.73 3.73 0 0 1-1.429-2.159l1.429-.669a3.328 3.328 0 0 0 .954 1.73 2.429 2.429 0 0 0 1.669.588 2.786 2.786 0 0 0 1.917-.648 2.147 2.147 0 0 0 .733-1.687 2.238 2.238 0 0 0-.511-1.464 3.886 3.886 0 0 0-1.543-1.051l-1.609-.653a4.567 4.567 0 0 1-1.967-1.348 3.1 3.1 0 0 1-.647-1.975 2.762 2.762 0 0 1 1.05-2.215 4.035 4.035 0 0 1 2.677-.876 4.224 4.224 0 0 1 2.067.48 3.335 3.335 0 0 1 1.361 1.417l-1.3.79a3.287 3.287 0 0 0-1-1.086 2.249 2.249 0 0 0-1.248-.356 2.071 2.071 0 0 0-1.451.515 1.787 1.787 0 0 0-.131 2.473 3.625 3.625 0 0 0 1.347.867z" transform="translate(-267.632 -97.683)"/>
        </g>
    </g>
</svg>
