<svg xmlns="http://www.w3.org/2000/svg" width="1024" height="2104.001" viewBox="0 0 1024 2104.001">
    <g data-name="Soustraction 2" style="fill:#199fe3">
        <path d="M-1150.5 1534.5h-1023v-2103h340.023c-29.399 53.645-52.183 111.842-67.723 172.994-16.124 63.447-24.3 129.562-24.3 196.506 0 23.042.982 46.276 2.919 69.057a800.384 800.384 0 0 0 8.567 67.063 781.98 781.98 0 0 0 13.931 64.73 761.822 761.822 0 0 0 19.012 62.057 739.412 739.412 0 0 0 23.808 59.044 714.293 714.293 0 0 0 28.32 55.694 685.994 685.994 0 0 0 32.55 52.002c11.47 16.605 23.75 32.745 36.494 47.971 12.749 15.23 26.259 29.9 40.156 43.6 13.931 13.736 28.577 26.821 43.532 38.891 15.026 12.128 30.713 23.514 46.627 33.841 16.024 10.4 32.657 19.973 49.435 28.451 16.935 8.558 34.417 16.202 51.961 22.72a490.858 490.858 0 0 0 54.202 16.651 481.635 481.635 0 0 0 56.158 10.24A481.906 481.906 0 0 0-1360 476.5a482.17 482.17 0 0 0 55.051-3.159 481.193 481.193 0 0 0 53.547-9.282 489.014 489.014 0 0 0 51.802-15.115 504.504 504.504 0 0 0 49.1-20.315V1534.5z" style="stroke:none" transform="translate(2174 569)"/>
        <path d="M-1151 1534V429.421a504.995 504.995 0 0 1-48.434 19.995 489.484 489.484 0 0 1-51.854 15.13 481.62 481.62 0 0 1-53.604 9.292A482.693 482.693 0 0 1-1360 477c-19.312 0-38.789-1.175-57.888-3.492a482.113 482.113 0 0 1-56.216-10.25 491.31 491.31 0 0 1-54.258-16.668c-17.561-6.525-35.06-14.176-52.012-22.742-16.795-8.487-33.443-18.068-49.483-28.478-15.928-10.337-31.63-21.733-46.668-33.871-14.967-12.08-29.626-25.177-43.57-38.924-13.907-13.712-27.428-28.394-40.187-43.636-12.755-15.238-25.043-31.39-36.522-48.008a686.558 686.558 0 0 1-32.574-52.04 714.647 714.647 0 0 1-28.34-55.732 739.97 739.97 0 0 1-23.824-59.085 762.235 762.235 0 0 1-19.024-62.098 782.234 782.234 0 0 1-13.94-64.771 800.765 800.765 0 0 1-8.573-67.105A819.094 819.094 0 0 1-1926-199c0-66.986 8.181-133.141 24.316-196.63 15.479-60.91 38.14-118.893 67.364-172.37H-2173v2102h1022m1 1.002V1535h-1024V-569h341.368c-29.574 53.81-52.481 112.223-68.083 173.617C-1916.83-331.975-1925-265.903-1925-199c0 23.026.981 46.246 2.917 69.015a799.896 799.896 0 0 0 8.562 67.021A781.408 781.408 0 0 0-1899.6 1.724a761.347 761.347 0 0 0 19 62.016 738.954 738.954 0 0 0 23.791 59.005 713.658 713.658 0 0 0 28.3 55.654 685.478 685.478 0 0 0 32.526 51.964c11.463 16.593 23.732 32.72 36.466 47.934 12.739 15.218 26.238 29.875 40.124 43.566 13.92 13.724 28.553 26.798 43.495 38.857 15.012 12.116 30.685 23.492 46.585 33.81 16.01 10.392 32.627 19.955 49.389 28.425 16.917 8.549 34.382 16.185 51.91 22.698a490.36 490.36 0 0 0 54.146 16.633 481.161 481.161 0 0 0 56.1 10.229A481.419 481.419 0 0 0-1360 476c18.343 0 36.845-1.062 54.994-3.155a480.635 480.635 0 0 0 53.491-9.273 488.5 488.5 0 0 0 51.749-15.1A504.137 504.137 0 0 0-1150 427.837v1107.166z" style="fill:#707070;stroke:none" transform="translate(2174 569)"/>
    </g>
</svg>
